<svg xmlns="http://www.w3.org/2000/svg" viewBox="675.0248756218906 272.63599999999997 708.139303482587 738.92" version="1.1" style="max-height: 500px" width="708.139303482587" height="738.92">
<path fill="#AC8F5E" d="m0 0h32v59h61l1 4-1 28h-61v172l8-6 14-11 17-9h2l-2-10-11-21-5-15v-19l4-15 5-10 9-11 15-11 6-4h2l-1 15v16l1 4 4-14 7-13 8-10 10-11 8-11 4-11 2-11v-10l-3-17-2-7h3l12 7 14 11 9 10 8 14 4 11 1 6v16l-4 18-14 28-2 8v9l4 15 5 17v15l-3 10 1 4 1 3-7 8-7 7-9-3-16-4-8-1h-18l-17 3-15 6-14 8-11 9-7 7-13 17-11 16-3 4-4-2-13-19-9-12-9-10-13-10-14-8-15-6-17-3h-18l-19 3-15 6-15 9-10 9-11 15-8 17-4 16-1 7v26l3 18 5 17 9 21 12 23 15 24 21 28 9 11 11 13 9 10 14 15 7 8 16 16 8 7 13 12 8 7 10 9 14 11 9 7 5-2 13-11 11-9 13-12 8-7 10-9 13-12 8-8 7-8 12-12 7-8 11-13 11-14 12-15 18-27 10-17 11-21 9-24 5-22 1-8v-22l-3-17-6-16-6-11 2-4 12-12 3 1 9 16 5 12 4 14 3 26-1 17-3 18-6 21-8 20-12 24-13 21-10 14-11 16-11 14-24 28-16 17-30 30-8 7-7 7-8 7-34 28-11 8-6 1-13-9-14-12-10-8-13-11-10-9-12-11-7-7-8-7-14-14-4 2-9 9-7 8-4 2v2l-16 16-1 2 5 2 17 9 6 4-1 2-20 7-36 13-30 10-3-1 15-46 15-43 2-2 6 12 7 15v2l5-3 12-12 7-8 17-17h2l-6-8-11-13-14-17-13-18-18-27-14-25-9-20-8-22-5-23-1-10v-19l3-21 7-20 9-17 11-14 12-12h2l-1-4-20-25-8-14-4-14v-20l3-12 7-14 10-14 4-3 3 13 5 15 6 10 6 4h7l4-3-1-12-12-22-4-13-2-12v-8l3-15 8-16 6-8 12-12 15-10 5-3 3 1-4 17-1 8v11l3 13 6 12 15 16 10 14 6 14 2 9 1 1v-26l-1-9 6 2 12 8 10 9 7 11 5 13 2 9v15l-4 15-9 17-4 7-1 9 19 10 13 10 7 6 2 1-1-7v-164l-61-1v-32h61v-58zm158 89-4 10-7 14-8 10-10 11-7 10-4 11-1 5v43l-17-8-11-8-9-10-4-4v16l4 11 9 16 6 14 10-1h26l14 2h5l3-9v-8l-7-27-1-7v-12l3-14 4-10 8-14 4-11v-18l-4-11zm-286 1-4 9-1 5v10l4 13 12 25 3 12v7l-3 10-6 8-5 4-9 3h-9l-10-3-9-6-4-3h-2l3 14 6 12 8 10 10 11 6 8 9-3 16-5 12-2h29l8 1 14-28 5-12 1-16-2-1-8 11-9 8-16 8-5 2-1-40-4-15-6-10-13-15-8-9-6-12-4-11z" transform="translate(1008,316)"/>
<path fill="#AC8F5E" d="m0 0h2l1 2 4 50v8l28 2 31 3 2 1-2 4-11 10-7 8-45 45-1 2h-2l-2 4-6 5-52 1-8 7-7 8-37 37-7 8-33 33-7 8-42 42-7 8-5 4-7 8 2 6 5 12 2 8v13l-4 6-2 1h-8l-5-4-2-4-3-16-5-10-4-5-10-6-11-4-11-1-5-6-1-7 3-5 5-3h12l12 3 12 6 3 1 7-8 36-36 7-8 31-31 7-8 40-40 7-8 24-24 1-2v-53zm-17 47-35 35-1 2v21l4-2 22-22 4-5 8-7 1-2-1-20zm18 35-6 5-6 7-8 7-11 12-7 7v2h22l25-25 7-8 5-6-2-1z" transform="translate(1285,419)"/>
</svg>
